<svg width="32" height="32" viewBox="0 0 32 32" fill="none" xmlns="http://www.w3.org/2000/svg">
<rect width="32" height="32" fill="#525252"/>
<rect width="375" height="1562" transform="translate(-20 -8)" fill="white"/>
<rect width="375" height="48" transform="translate(-20 -8)" fill="white"/>
<g clip-path="url(#clip0_3101_13996)">
<path d="M15.9888 32C17.9364 32 19.5152 24.8366 19.5152 16C19.5152 7.16344 17.9364 0 15.9888 0C14.0412 0 12.4624 7.16344 12.4624 16C12.4624 24.8366 14.0412 32 15.9888 32Z" fill="#242424"/>
<path d="M21.6064 31.04C22.9142 31.04 23.9744 24.3063 23.9744 16C23.9744 7.6936 22.9142 0.959961 21.6064 0.959961C20.2986 0.959961 19.2384 7.6936 19.2384 16C19.2384 24.3063 20.2986 31.04 21.6064 31.04Z" fill="#242424"/>
<path d="M26.7312 27.6798C27.6467 27.6798 28.3888 22.4505 28.3888 15.9998C28.3888 9.54914 27.6467 4.31982 26.7312 4.31982C25.8157 4.31982 25.0736 9.54914 25.0736 15.9998C25.0736 22.4505 25.8157 27.6798 26.7312 27.6798Z" fill="#242424"/>
<path d="M31.0064 21.4401C31.5552 21.4401 32 19.0045 32 16.0001C32 12.9956 31.5552 10.5601 31.0064 10.5601C30.4577 10.5601 30.0128 12.9956 30.0128 16.0001C30.0128 19.0045 30.4577 21.4401 31.0064 21.4401Z" fill="#242424"/>
<path d="M0.9936 21.4401C1.54235 21.4401 1.9872 19.0045 1.9872 16.0001C1.9872 12.9956 1.54235 10.5601 0.9936 10.5601C0.44485 10.5601 0 12.9956 0 16.0001C0 19.0045 0.44485 21.4401 0.9936 21.4401Z" fill="#242424"/>
<path d="M10.3935 31.04C11.7013 31.04 12.7615 24.3063 12.7615 16C12.7615 7.6936 11.7013 0.959961 10.3935 0.959961C9.0857 0.959961 8.02551 7.6936 8.02551 16C8.02551 24.3063 9.0857 31.04 10.3935 31.04Z" fill="#242424"/>
<path d="M5.26881 27.6798C6.18427 27.6798 6.92641 22.4505 6.92641 15.9998C6.92641 9.54914 6.18427 4.31982 5.26881 4.31982C4.35334 4.31982 3.61121 9.54914 3.61121 15.9998C3.61121 22.4505 4.35334 27.6798 5.26881 27.6798Z" fill="#242424"/>
</g>
<defs>
<clipPath id="clip0_3101_13996">
<rect width="32" height="32" fill="white"/>
</clipPath>
</defs>
</svg>
